<mxfile host="app.diagrams.net" modified="2023-12-20T15:16:38.340Z" agent="Mozilla/5.0 (X11; Ubuntu; Linux x86_64; rv:109.0) Gecko/20100101 Firefox/116.0" etag="OfAxJZjYovqTbg31LkV_" version="22.1.11" type="device">
  <diagram name="Page-1" id="nA-qFnZYefa0w5yZhD1C">
    <mxGraphModel dx="14770" dy="5630" grid="0" gridSize="10" guides="1" tooltips="1" connect="1" arrows="1" fold="1" page="1" pageScale="1" pageWidth="2339" pageHeight="3300" math="0" shadow="0">
      <root>
        <mxCell id="0" />
        <mxCell id="1" parent="0" />
        <mxCell id="Ryh0D5OJjJFEdU4xdDow-1" value="&lt;div&gt;&lt;br&gt;&lt;/div&gt;&lt;div style=&quot;font-size: 20px;&quot;&gt;&lt;br&gt;&lt;/div&gt;" style="rounded=0;whiteSpace=wrap;html=1;fontSize=55;fontFamily=Verdana;fillColor=#f5f5f5;fontColor=#333333;strokeColor=none;" vertex="1" parent="1">
          <mxGeometry x="5" width="2330" height="160" as="geometry" />
        </mxCell>
        <mxCell id="Ryh0D5OJjJFEdU4xdDow-2" value="" style="whiteSpace=wrap;html=1;aspect=fixed;strokeColor=#666666;fillColor=#f5f5f5;fontColor=#333333;" vertex="1" parent="1">
          <mxGeometry x="950" y="1160" width="440" height="440" as="geometry" />
        </mxCell>
        <mxCell id="Ryh0D5OJjJFEdU4xdDow-3" value="" style="whiteSpace=wrap;html=1;aspect=fixed;strokeColor=#666666;fillColor=#f5f5f5;fontColor=#333333;" vertex="1" parent="1">
          <mxGeometry x="80" y="240" width="600" height="600" as="geometry" />
        </mxCell>
        <mxCell id="Ryh0D5OJjJFEdU4xdDow-4" value="" style="whiteSpace=wrap;html=1;aspect=fixed;strokeColor=#666666;fillColor=#f5f5f5;fontColor=#333333;" vertex="1" parent="1">
          <mxGeometry x="870" y="240" width="600" height="600" as="geometry" />
        </mxCell>
        <mxCell id="Ryh0D5OJjJFEdU4xdDow-5" value="" style="whiteSpace=wrap;html=1;aspect=fixed;strokeColor=#666666;fillColor=#f5f5f5;fontColor=#333333;" vertex="1" parent="1">
          <mxGeometry x="1660" y="240" width="600" height="600" as="geometry" />
        </mxCell>
        <mxCell id="Ryh0D5OJjJFEdU4xdDow-7" value="" style="rounded=0;whiteSpace=wrap;html=1;strokeColor=#666666;fillColor=#f5f5f5;fontColor=#333333;" vertex="1" parent="1">
          <mxGeometry x="80" y="920" width="600" height="1000" as="geometry" />
        </mxCell>
        <mxCell id="Ryh0D5OJjJFEdU4xdDow-8" value="" style="rounded=0;whiteSpace=wrap;html=1;strokeColor=#666666;fillColor=#f5f5f5;fontColor=#333333;" vertex="1" parent="1">
          <mxGeometry x="1660" y="920" width="600" height="1000" as="geometry" />
        </mxCell>
        <mxCell id="Ryh0D5OJjJFEdU4xdDow-9" value="" style="rounded=0;whiteSpace=wrap;html=1;strokeColor=#666666;fillColor=#f5f5f5;fontColor=#333333;" vertex="1" parent="1">
          <mxGeometry x="80" y="2000" width="1040" height="1010" as="geometry" />
        </mxCell>
        <mxCell id="Ryh0D5OJjJFEdU4xdDow-10" value="" style="rounded=0;whiteSpace=wrap;html=1;strokeColor=#666666;fillColor=#f5f5f5;fontColor=#333333;" vertex="1" parent="1">
          <mxGeometry x="1200" y="2000" width="1060" height="720" as="geometry" />
        </mxCell>
        <mxCell id="Ryh0D5OJjJFEdU4xdDow-11" value="" style="rounded=0;whiteSpace=wrap;html=1;strokeColor=#666666;fillColor=#f5f5f5;fontColor=#333333;" vertex="1" parent="1">
          <mxGeometry x="1200" y="2800" width="1060" height="210" as="geometry" />
        </mxCell>
        <mxCell id="Ryh0D5OJjJFEdU4xdDow-12" value="" style="rounded=0;whiteSpace=wrap;html=1;fillColor=#f5f5f5;fontColor=#333333;strokeColor=none;" vertex="1" parent="1">
          <mxGeometry x="5" y="3130" width="2330" height="160" as="geometry" />
        </mxCell>
        <mxCell id="Ryh0D5OJjJFEdU4xdDow-15" value="" style="endArrow=oval;html=1;rounded=0;exitX=1;exitY=0.24;exitDx=0;exitDy=0;exitPerimeter=0;fillColor=#f8cecc;strokeColor=#b85450;strokeWidth=11;startArrow=oval;startFill=1;endFill=1;endSize=17;startSize=17;targetPerimeterSpacing=0;sourcePerimeterSpacing=0;" edge="1" parent="1">
          <mxGeometry width="50" height="50" relative="1" as="geometry">
            <mxPoint x="680" y="1379.44" as="sourcePoint" />
            <mxPoint x="950" y="1379.44" as="targetPoint" />
          </mxGeometry>
        </mxCell>
        <mxCell id="Ryh0D5OJjJFEdU4xdDow-16" value="" style="endArrow=oval;html=1;rounded=0;exitX=1;exitY=0.24;exitDx=0;exitDy=0;exitPerimeter=0;fillColor=#f8cecc;strokeColor=#b85450;strokeWidth=11;startArrow=oval;startFill=1;endFill=1;endSize=17;startSize=17;targetPerimeterSpacing=0;sourcePerimeterSpacing=0;" edge="1" parent="1">
          <mxGeometry width="50" height="50" relative="1" as="geometry">
            <mxPoint x="1390" y="1379.44" as="sourcePoint" />
            <mxPoint x="1660" y="1379.44" as="targetPoint" />
          </mxGeometry>
        </mxCell>
        <mxCell id="Ryh0D5OJjJFEdU4xdDow-17" value="" style="endArrow=oval;html=1;rounded=0;fillColor=#f8cecc;strokeColor=#b85450;strokeWidth=11;startArrow=oval;startFill=1;endFill=1;endSize=17;startSize=17;targetPerimeterSpacing=0;sourcePerimeterSpacing=0;" edge="1" parent="1">
          <mxGeometry width="50" height="50" relative="1" as="geometry">
            <mxPoint x="950" y="1380" as="sourcePoint" />
            <mxPoint x="950" y="1160" as="targetPoint" />
          </mxGeometry>
        </mxCell>
        <mxCell id="Ryh0D5OJjJFEdU4xdDow-18" value="" style="endArrow=oval;html=1;rounded=0;fillColor=#f8cecc;strokeColor=#b85450;strokeWidth=11;startArrow=oval;startFill=1;endFill=1;endSize=17;startSize=17;targetPerimeterSpacing=0;sourcePerimeterSpacing=0;" edge="1" parent="1">
          <mxGeometry width="50" height="50" relative="1" as="geometry">
            <mxPoint x="950" y="1600" as="sourcePoint" />
            <mxPoint x="950" y="1380" as="targetPoint" />
          </mxGeometry>
        </mxCell>
        <mxCell id="Ryh0D5OJjJFEdU4xdDow-19" value="" style="endArrow=oval;html=1;rounded=0;fillColor=#f8cecc;strokeColor=#b85450;strokeWidth=11;startArrow=oval;startFill=1;endFill=1;endSize=17;startSize=17;targetPerimeterSpacing=0;sourcePerimeterSpacing=0;" edge="1" parent="1">
          <mxGeometry width="50" height="50" relative="1" as="geometry">
            <mxPoint x="1390" y="1600" as="sourcePoint" />
            <mxPoint x="1390" y="1380" as="targetPoint" />
          </mxGeometry>
        </mxCell>
        <mxCell id="Ryh0D5OJjJFEdU4xdDow-20" value="" style="endArrow=oval;html=1;rounded=0;fillColor=#f8cecc;strokeColor=#b85450;strokeWidth=11;startArrow=oval;startFill=1;endFill=1;endSize=17;startSize=17;targetPerimeterSpacing=0;sourcePerimeterSpacing=0;" edge="1" parent="1">
          <mxGeometry width="50" height="50" relative="1" as="geometry">
            <mxPoint x="1390" y="1380" as="sourcePoint" />
            <mxPoint x="1390" y="1160" as="targetPoint" />
          </mxGeometry>
        </mxCell>
        <mxCell id="Ryh0D5OJjJFEdU4xdDow-21" value="" style="endArrow=oval;html=1;rounded=0;fillColor=#f8cecc;strokeColor=#b85450;strokeWidth=11;startArrow=oval;startFill=1;endFill=1;endSize=17;startSize=17;targetPerimeterSpacing=0;sourcePerimeterSpacing=0;entryX=1;entryY=0;entryDx=0;entryDy=0;" edge="1" parent="1" target="Ryh0D5OJjJFEdU4xdDow-7">
          <mxGeometry width="50" height="50" relative="1" as="geometry">
            <mxPoint x="678.6700000000001" y="1380" as="sourcePoint" />
            <mxPoint x="678.6700000000001" y="1160" as="targetPoint" />
          </mxGeometry>
        </mxCell>
        <mxCell id="Ryh0D5OJjJFEdU4xdDow-22" value="" style="endArrow=oval;html=1;rounded=0;fillColor=#f8cecc;strokeColor=#b85450;strokeWidth=11;startArrow=oval;startFill=1;endFill=1;endSize=17;startSize=17;targetPerimeterSpacing=0;sourcePerimeterSpacing=0;" edge="1" parent="1">
          <mxGeometry width="50" height="50" relative="1" as="geometry">
            <mxPoint x="680" y="920" as="sourcePoint" />
            <mxPoint x="80" y="920" as="targetPoint" />
          </mxGeometry>
        </mxCell>
        <mxCell id="Ryh0D5OJjJFEdU4xdDow-23" value="" style="endArrow=oval;html=1;rounded=0;fillColor=#f8cecc;strokeColor=#b85450;strokeWidth=11;startArrow=oval;startFill=1;endFill=1;endSize=17;startSize=17;targetPerimeterSpacing=0;sourcePerimeterSpacing=0;" edge="1" parent="1">
          <mxGeometry width="50" height="50" relative="1" as="geometry">
            <mxPoint x="80" y="920" as="sourcePoint" />
            <mxPoint x="80" y="840" as="targetPoint" />
          </mxGeometry>
        </mxCell>
        <mxCell id="Ryh0D5OJjJFEdU4xdDow-24" value="" style="endArrow=oval;html=1;rounded=0;fillColor=#f8cecc;strokeColor=#b85450;strokeWidth=11;startArrow=oval;startFill=1;endFill=1;endSize=17;startSize=17;targetPerimeterSpacing=0;sourcePerimeterSpacing=0;" edge="1" parent="1">
          <mxGeometry width="50" height="50" relative="1" as="geometry">
            <mxPoint x="680" y="839.35" as="sourcePoint" />
            <mxPoint x="80" y="839.35" as="targetPoint" />
          </mxGeometry>
        </mxCell>
        <mxCell id="Ryh0D5OJjJFEdU4xdDow-25" value="" style="endArrow=oval;html=1;rounded=0;fillColor=#f8cecc;strokeColor=#b85450;strokeWidth=11;startArrow=oval;startFill=1;endFill=1;endSize=17;startSize=17;targetPerimeterSpacing=0;sourcePerimeterSpacing=0;entryX=1;entryY=0;entryDx=0;entryDy=0;exitX=1;exitY=1;exitDx=0;exitDy=0;" edge="1" parent="1" source="Ryh0D5OJjJFEdU4xdDow-7">
          <mxGeometry width="50" height="50" relative="1" as="geometry">
            <mxPoint x="678.6700000000001" y="1840" as="sourcePoint" />
            <mxPoint x="680" y="1380" as="targetPoint" />
          </mxGeometry>
        </mxCell>
        <mxCell id="Ryh0D5OJjJFEdU4xdDow-26" value="" style="endArrow=oval;html=1;rounded=0;fillColor=#f8cecc;strokeColor=#b85450;strokeWidth=11;startArrow=oval;startFill=1;endFill=1;endSize=17;startSize=17;targetPerimeterSpacing=0;sourcePerimeterSpacing=0;entryX=1;entryY=0;entryDx=0;entryDy=0;" edge="1" parent="1">
          <mxGeometry width="50" height="50" relative="1" as="geometry">
            <mxPoint x="1660" y="1380" as="sourcePoint" />
            <mxPoint x="1661.33" y="920" as="targetPoint" />
          </mxGeometry>
        </mxCell>
        <mxCell id="Ryh0D5OJjJFEdU4xdDow-27" value="" style="endArrow=oval;html=1;rounded=0;fillColor=#f8cecc;strokeColor=#b85450;strokeWidth=11;startArrow=oval;startFill=1;endFill=1;endSize=17;startSize=17;targetPerimeterSpacing=0;sourcePerimeterSpacing=0;entryX=1;entryY=0;entryDx=0;entryDy=0;exitX=1;exitY=1;exitDx=0;exitDy=0;" edge="1" parent="1">
          <mxGeometry width="50" height="50" relative="1" as="geometry">
            <mxPoint x="1660" y="1920" as="sourcePoint" />
            <mxPoint x="1660" y="1380" as="targetPoint" />
          </mxGeometry>
        </mxCell>
        <mxCell id="Ryh0D5OJjJFEdU4xdDow-28" value="" style="endArrow=oval;html=1;rounded=0;fillColor=#f8cecc;strokeColor=#b85450;strokeWidth=11;startArrow=oval;startFill=1;endFill=1;endSize=17;startSize=17;targetPerimeterSpacing=0;sourcePerimeterSpacing=0;entryX=1;entryY=0;entryDx=0;entryDy=0;" edge="1" parent="1" target="Ryh0D5OJjJFEdU4xdDow-3">
          <mxGeometry width="50" height="50" relative="1" as="geometry">
            <mxPoint x="680.0000000000001" y="840" as="sourcePoint" />
            <mxPoint x="681.33" y="380" as="targetPoint" />
          </mxGeometry>
        </mxCell>
        <mxCell id="Ryh0D5OJjJFEdU4xdDow-29" value="" style="endArrow=oval;html=1;rounded=0;fillColor=#f8cecc;strokeColor=#b85450;strokeWidth=11;startArrow=oval;startFill=1;endFill=1;endSize=17;startSize=17;targetPerimeterSpacing=0;sourcePerimeterSpacing=0;" edge="1" parent="1">
          <mxGeometry width="50" height="50" relative="1" as="geometry">
            <mxPoint x="870" y="840" as="sourcePoint" />
            <mxPoint x="680" y="840" as="targetPoint" />
          </mxGeometry>
        </mxCell>
        <mxCell id="Ryh0D5OJjJFEdU4xdDow-30" value="" style="endArrow=oval;html=1;rounded=0;fillColor=#f8cecc;strokeColor=#b85450;strokeWidth=11;startArrow=oval;startFill=1;endFill=1;endSize=17;startSize=17;targetPerimeterSpacing=0;sourcePerimeterSpacing=0;" edge="1" parent="1">
          <mxGeometry width="50" height="50" relative="1" as="geometry">
            <mxPoint x="1470" y="840" as="sourcePoint" />
            <mxPoint x="1170" y="840" as="targetPoint" />
          </mxGeometry>
        </mxCell>
        <mxCell id="Ryh0D5OJjJFEdU4xdDow-31" value="" style="endArrow=oval;html=1;rounded=0;fillColor=#f8cecc;strokeColor=#b85450;strokeWidth=11;startArrow=oval;startFill=1;endFill=1;endSize=17;startSize=17;targetPerimeterSpacing=0;sourcePerimeterSpacing=0;" edge="1" parent="1">
          <mxGeometry width="50" height="50" relative="1" as="geometry">
            <mxPoint x="1169.38" y="1060" as="sourcePoint" />
            <mxPoint x="1169.38" y="840" as="targetPoint" />
          </mxGeometry>
        </mxCell>
        <mxCell id="Ryh0D5OJjJFEdU4xdDow-32" value="" style="endArrow=oval;html=1;rounded=0;fillColor=#f8cecc;strokeColor=#b85450;strokeWidth=11;startArrow=oval;startFill=1;endFill=1;endSize=17;startSize=17;targetPerimeterSpacing=0;sourcePerimeterSpacing=0;exitX=0.5;exitY=1;exitDx=0;exitDy=0;" edge="1" parent="1" source="Ryh0D5OJjJFEdU4xdDow-4">
          <mxGeometry width="50" height="50" relative="1" as="geometry">
            <mxPoint x="1060" y="839.33" as="sourcePoint" />
            <mxPoint x="870" y="839.33" as="targetPoint" />
          </mxGeometry>
        </mxCell>
        <mxCell id="Ryh0D5OJjJFEdU4xdDow-33" value="" style="endArrow=oval;html=1;rounded=0;fillColor=#f8cecc;strokeColor=#b85450;strokeWidth=11;startArrow=oval;startFill=1;endFill=1;endSize=17;startSize=17;targetPerimeterSpacing=0;sourcePerimeterSpacing=0;" edge="1" parent="1">
          <mxGeometry width="50" height="50" relative="1" as="geometry">
            <mxPoint x="1660" y="920" as="sourcePoint" />
            <mxPoint x="1661" y="840" as="targetPoint" />
          </mxGeometry>
        </mxCell>
        <mxCell id="Ryh0D5OJjJFEdU4xdDow-34" value="" style="endArrow=oval;html=1;rounded=0;fillColor=#f8cecc;strokeColor=#b85450;strokeWidth=11;startArrow=oval;startFill=1;endFill=1;endSize=17;startSize=17;targetPerimeterSpacing=0;sourcePerimeterSpacing=0;entryX=0;entryY=0;entryDx=0;entryDy=0;" edge="1" parent="1" target="Ryh0D5OJjJFEdU4xdDow-5">
          <mxGeometry width="50" height="50" relative="1" as="geometry">
            <mxPoint x="1660" y="840" as="sourcePoint" />
            <mxPoint x="1661" y="760" as="targetPoint" />
          </mxGeometry>
        </mxCell>
        <mxCell id="Ryh0D5OJjJFEdU4xdDow-35" value="" style="endArrow=oval;html=1;rounded=0;fillColor=#f8cecc;strokeColor=#b85450;strokeWidth=11;startArrow=oval;startFill=1;endFill=1;endSize=17;startSize=17;targetPerimeterSpacing=0;sourcePerimeterSpacing=0;" edge="1" parent="1">
          <mxGeometry width="50" height="50" relative="1" as="geometry">
            <mxPoint x="1660" y="840" as="sourcePoint" />
            <mxPoint x="2261" y="840" as="targetPoint" />
          </mxGeometry>
        </mxCell>
        <mxCell id="Ryh0D5OJjJFEdU4xdDow-36" value="" style="endArrow=oval;html=1;rounded=0;fillColor=#f8cecc;strokeColor=#b85450;strokeWidth=11;startArrow=oval;startFill=1;endFill=1;endSize=17;startSize=17;targetPerimeterSpacing=0;sourcePerimeterSpacing=0;" edge="1" parent="1">
          <mxGeometry width="50" height="50" relative="1" as="geometry">
            <mxPoint x="1660" y="1920" as="sourcePoint" />
            <mxPoint x="2261" y="1920" as="targetPoint" />
          </mxGeometry>
        </mxCell>
        <mxCell id="Ryh0D5OJjJFEdU4xdDow-38" value="" style="endArrow=oval;html=1;rounded=0;fillColor=#f8cecc;strokeColor=#b85450;strokeWidth=11;startArrow=oval;startFill=1;endFill=1;endSize=17;startSize=17;targetPerimeterSpacing=0;sourcePerimeterSpacing=0;entryX=1;entryY=0;entryDx=0;entryDy=0;" edge="1" parent="1">
          <mxGeometry width="50" height="50" relative="1" as="geometry">
            <mxPoint x="680" y="2000" as="sourcePoint" />
            <mxPoint x="680" y="1920" as="targetPoint" />
          </mxGeometry>
        </mxCell>
        <mxCell id="Ryh0D5OJjJFEdU4xdDow-39" value="" style="endArrow=oval;html=1;rounded=0;exitX=0;exitY=0;exitDx=0;exitDy=0;fillColor=#f8cecc;strokeColor=#b85450;strokeWidth=11;startArrow=oval;startFill=1;endFill=1;endSize=17;startSize=17;targetPerimeterSpacing=0;sourcePerimeterSpacing=0;entryX=1;entryY=0;entryDx=0;entryDy=0;" edge="1" parent="1" source="Ryh0D5OJjJFEdU4xdDow-9" target="Ryh0D5OJjJFEdU4xdDow-9">
          <mxGeometry width="50" height="50" relative="1" as="geometry">
            <mxPoint x="680" y="2000" as="sourcePoint" />
            <mxPoint x="950" y="2000" as="targetPoint" />
          </mxGeometry>
        </mxCell>
        <mxCell id="Ryh0D5OJjJFEdU4xdDow-40" value="" style="endArrow=oval;html=1;rounded=0;fillColor=#f8cecc;strokeColor=#b85450;strokeWidth=11;startArrow=oval;startFill=1;endFill=1;endSize=17;startSize=17;targetPerimeterSpacing=0;sourcePerimeterSpacing=0;" edge="1" parent="1">
          <mxGeometry width="50" height="50" relative="1" as="geometry">
            <mxPoint x="1120" y="2800" as="sourcePoint" />
            <mxPoint x="1120" y="2000" as="targetPoint" />
          </mxGeometry>
        </mxCell>
        <mxCell id="Ryh0D5OJjJFEdU4xdDow-42" value="" style="endArrow=oval;html=1;rounded=0;fillColor=#f8cecc;strokeColor=#b85450;strokeWidth=11;startArrow=oval;startFill=1;endFill=1;endSize=17;startSize=17;targetPerimeterSpacing=0;sourcePerimeterSpacing=0;entryX=1;entryY=0;entryDx=0;entryDy=0;" edge="1" parent="1" target="Ryh0D5OJjJFEdU4xdDow-11">
          <mxGeometry width="50" height="50" relative="1" as="geometry">
            <mxPoint x="1120" y="2800" as="sourcePoint" />
            <mxPoint x="1721" y="2800" as="targetPoint" />
          </mxGeometry>
        </mxCell>
        <mxCell id="Ryh0D5OJjJFEdU4xdDow-43" value="" style="endArrow=oval;html=1;rounded=0;fillColor=#f8cecc;strokeColor=#b85450;strokeWidth=11;startArrow=oval;startFill=1;endFill=1;endSize=17;startSize=17;targetPerimeterSpacing=0;sourcePerimeterSpacing=0;exitX=1;exitY=1;exitDx=0;exitDy=0;" edge="1" parent="1" source="Ryh0D5OJjJFEdU4xdDow-9">
          <mxGeometry width="50" height="50" relative="1" as="geometry">
            <mxPoint x="1120" y="3600" as="sourcePoint" />
            <mxPoint x="1120" y="2800" as="targetPoint" />
          </mxGeometry>
        </mxCell>
        <mxCell id="Ryh0D5OJjJFEdU4xdDow-44" value="" style="endArrow=oval;html=1;rounded=0;fillColor=#f8cecc;strokeColor=#b85450;strokeWidth=11;startArrow=oval;startFill=1;endFill=1;endSize=17;startSize=17;targetPerimeterSpacing=0;sourcePerimeterSpacing=0;" edge="1" parent="1">
          <mxGeometry width="50" height="50" relative="1" as="geometry">
            <mxPoint x="1660" y="2000" as="sourcePoint" />
            <mxPoint x="1660" y="1920" as="targetPoint" />
          </mxGeometry>
        </mxCell>
        <mxCell id="Ryh0D5OJjJFEdU4xdDow-45" value="" style="endArrow=oval;html=1;rounded=0;fillColor=#f8cecc;strokeColor=#b85450;strokeWidth=11;startArrow=oval;startFill=1;endFill=1;endSize=17;startSize=17;targetPerimeterSpacing=0;sourcePerimeterSpacing=0;" edge="1" parent="1">
          <mxGeometry width="50" height="50" relative="1" as="geometry">
            <mxPoint x="1200" y="2000" as="sourcePoint" />
            <mxPoint x="1660" y="2000" as="targetPoint" />
          </mxGeometry>
        </mxCell>
        <mxCell id="Ryh0D5OJjJFEdU4xdDow-46" value="" style="endArrow=oval;html=1;rounded=0;fillColor=#f8cecc;strokeColor=#b85450;strokeWidth=11;startArrow=oval;startFill=1;endFill=1;endSize=17;startSize=17;targetPerimeterSpacing=0;sourcePerimeterSpacing=0;" edge="1" parent="1">
          <mxGeometry width="50" height="50" relative="1" as="geometry">
            <mxPoint x="1200" y="2000" as="sourcePoint" />
            <mxPoint x="1199" y="1730" as="targetPoint" />
          </mxGeometry>
        </mxCell>
        <mxCell id="Ryh0D5OJjJFEdU4xdDow-47" value="" style="endArrow=oval;html=1;rounded=0;fillColor=#f8cecc;strokeColor=#b85450;strokeWidth=11;startArrow=oval;startFill=1;endFill=1;endSize=17;startSize=17;targetPerimeterSpacing=0;sourcePerimeterSpacing=0;" edge="1" parent="1">
          <mxGeometry width="50" height="50" relative="1" as="geometry">
            <mxPoint x="2258.33" y="2800" as="sourcePoint" />
            <mxPoint x="2258.33" y="2000" as="targetPoint" />
          </mxGeometry>
        </mxCell>
        <mxCell id="Ryh0D5OJjJFEdU4xdDow-50" value="" style="endArrow=oval;html=1;rounded=0;fillColor=#f8cecc;strokeColor=#b85450;strokeWidth=11;startArrow=oval;startFill=1;endFill=1;endSize=17;startSize=17;targetPerimeterSpacing=0;sourcePerimeterSpacing=0;" edge="1" parent="1">
          <mxGeometry width="50" height="50" relative="1" as="geometry">
            <mxPoint x="870" y="1032" as="sourcePoint" />
            <mxPoint x="680" y="1032" as="targetPoint" />
          </mxGeometry>
        </mxCell>
        <mxCell id="Ryh0D5OJjJFEdU4xdDow-51" value="" style="endArrow=oval;html=1;rounded=0;fillColor=#f8cecc;strokeColor=#b85450;strokeWidth=11;startArrow=oval;startFill=1;endFill=1;endSize=17;startSize=17;targetPerimeterSpacing=0;sourcePerimeterSpacing=0;" edge="1" parent="1">
          <mxGeometry width="50" height="50" relative="1" as="geometry">
            <mxPoint x="1660" y="1742" as="sourcePoint" />
            <mxPoint x="1431" y="1741" as="targetPoint" />
          </mxGeometry>
        </mxCell>
        <mxCell id="Ryh0D5OJjJFEdU4xdDow-52" value="" style="endArrow=oval;html=1;rounded=0;fillColor=#f8cecc;strokeColor=#b85450;strokeWidth=11;startArrow=oval;startFill=1;endFill=1;endSize=17;startSize=17;targetPerimeterSpacing=0;sourcePerimeterSpacing=0;" edge="1" parent="1">
          <mxGeometry width="50" height="50" relative="1" as="geometry">
            <mxPoint x="892" y="2000" as="sourcePoint" />
            <mxPoint x="892" y="1780" as="targetPoint" />
          </mxGeometry>
        </mxCell>
        <mxCell id="Ryh0D5OJjJFEdU4xdDow-53" value="" style="endArrow=oval;html=1;rounded=0;fillColor=#f8cecc;strokeColor=#b85450;strokeWidth=11;startArrow=oval;startFill=1;endFill=1;endSize=17;startSize=17;targetPerimeterSpacing=0;sourcePerimeterSpacing=0;" edge="1" parent="1">
          <mxGeometry width="50" height="50" relative="1" as="geometry">
            <mxPoint x="1660" y="1023" as="sourcePoint" />
            <mxPoint x="1410" y="1023" as="targetPoint" />
          </mxGeometry>
        </mxCell>
      </root>
    </mxGraphModel>
  </diagram>
</mxfile>
